<svg width="289" height="177" viewBox="0 0 289 177" fill="none" xmlns="http://www.w3.org/2000/svg">
<path d="M31.3254 163.188C31.3254 165.297 30.5111 166.978 28.8825 168.231C27.254 169.483 25.1034 170.11 22.4309 170.11C19.8001 170.11 17.5661 169.494 15.7287 168.262C13.8913 167.009 12.8265 165.381 12.5342 163.376L17.0128 161.372C17.0963 162.75 17.6391 163.867 18.6413 164.723C19.6644 165.558 20.9485 165.976 22.4935 165.976C23.6836 165.976 24.6336 165.736 25.3435 165.255C26.0534 164.775 26.4084 164.17 26.4084 163.439C26.4084 163.021 26.304 162.656 26.0952 162.343C25.8864 162.009 25.4688 161.685 24.8424 161.372C24.2161 161.059 23.7463 160.84 23.4331 160.714C23.1199 160.589 22.4518 160.359 21.4287 160.025C21.199 159.942 21.0215 159.879 20.8963 159.837C20.0402 159.545 19.3199 159.294 18.7353 159.086C18.1715 158.856 17.5243 158.543 16.7935 158.146C16.0836 157.729 15.5095 157.301 15.071 156.862C14.6325 156.403 14.2567 155.839 13.9435 155.171C13.6512 154.482 13.5051 153.72 13.5051 152.885C13.5051 150.859 14.2671 149.283 15.7913 148.155C17.3364 147.007 19.3721 146.433 21.8985 146.433C24.0281 146.433 25.9177 146.882 27.5672 147.78C29.2375 148.657 30.4172 149.993 31.1062 151.788L26.8781 153.918C26.6276 152.791 26.043 151.935 25.1243 151.35C24.2056 150.744 23.1199 150.442 21.8672 150.442C20.8232 150.442 19.9672 150.651 19.299 151.068C18.6309 151.465 18.2968 151.987 18.2968 152.634C18.2968 153.114 18.5369 153.553 19.0172 153.949C19.5183 154.346 20.0194 154.649 20.5204 154.858C21.0424 155.046 21.8672 155.327 22.9946 155.703C23.0573 155.724 23.1095 155.745 23.1512 155.766C23.193 155.766 23.2452 155.776 23.3078 155.797C23.3705 155.818 23.4226 155.839 23.4644 155.86C24.3622 156.152 25.1034 156.413 25.688 156.643C26.2935 156.852 26.9825 157.175 27.7551 157.614C28.5485 158.031 29.1749 158.48 29.6342 158.96C30.0935 159.441 30.4902 160.046 30.8243 160.777C31.1584 161.508 31.3254 162.312 31.3254 163.188Z" fill="#039EA0"/>
<path d="M50.756 169.734H46.4966V167.103C44.8889 169.108 42.8323 170.11 40.3268 170.11C38.3642 170.11 36.7774 169.504 35.5664 168.293C34.3763 167.062 33.7812 165.516 33.7812 163.658V151.788H38.0406V162.343C38.0406 163.616 38.3433 164.598 38.9488 165.287C39.5543 165.955 40.4312 166.289 41.5796 166.289C43.1246 166.289 44.3252 165.683 45.1812 164.472C46.0582 163.262 46.4966 161.654 46.4966 159.649V151.788H50.756V169.734Z" fill="#039EA0"/>
<path d="M58.7195 177H54.4601V151.788H58.7195V154.701C59.4085 153.657 60.2854 152.853 61.3503 152.29C62.436 151.705 63.5843 151.413 64.7953 151.413C66.925 151.413 68.7206 152.279 70.1821 154.012C71.6437 155.724 72.3744 157.958 72.3744 160.714C72.3744 163.512 71.6123 165.777 70.0882 167.51C68.5849 169.243 66.7057 170.11 64.4508 170.11C63.2816 170.11 62.1854 169.87 61.1623 169.39C60.1393 168.909 59.325 168.231 58.7195 167.354V177ZM60.0035 156.768C59.1475 157.791 58.7195 159.127 58.7195 160.777C58.7195 162.426 59.1475 163.763 60.0035 164.786C60.8805 165.809 61.9975 166.32 63.3546 166.32C64.7327 166.32 65.8497 165.809 66.7058 164.786C67.5618 163.742 67.9898 162.395 67.9898 160.746C67.9898 159.096 67.5618 157.76 66.7058 156.737C65.8706 155.714 64.764 155.202 63.386 155.202C62.0079 155.202 60.8805 155.724 60.0035 156.768Z" fill="#039EA0"/>
<path d="M91.2645 164.88C90.5755 166.571 89.542 167.865 88.164 168.763C86.7859 169.661 85.1574 170.11 83.2782 170.11C80.5639 170.11 78.3716 169.254 76.7013 167.542C75.031 165.809 74.1958 163.554 74.1958 160.777C74.1958 157.958 75.0101 155.693 76.6387 153.981C78.2673 152.269 80.4387 151.413 83.153 151.413C86.0343 151.413 88.2475 152.373 89.7925 154.294C91.3585 156.215 92.0057 158.783 91.7343 161.998H78.6744C78.7161 163.272 79.165 164.326 80.0211 165.162C80.898 165.976 82.0046 166.383 83.3409 166.383C85.5332 166.383 86.9216 165.318 87.5063 163.188L91.2645 164.88ZM83.1216 155.077C81.9733 155.077 81.0128 155.39 80.2403 156.016C79.4678 156.643 78.998 157.478 78.831 158.522H87.3184C87.1722 157.478 86.7129 156.643 85.9403 156.016C85.1887 155.39 84.2491 155.077 83.1216 155.077Z" fill="#039EA0"/>
<path d="M94.5566 169.734V151.788H98.816V154.451C99.4215 153.49 100.152 152.749 101.008 152.227C101.864 151.684 102.783 151.413 103.764 151.413C104.579 151.413 105.32 151.58 105.988 151.914C106.656 152.227 107.157 152.624 107.491 153.104L105.581 156.737C105.08 155.902 104.234 155.484 103.044 155.484C101.812 155.484 100.799 156.069 100.006 157.238C99.2127 158.386 98.816 160.192 98.816 162.656V169.734H94.5566Z" fill="#039EA0"/>
<path d="M137.223 163.564C136.472 165.59 135.167 167.187 133.308 168.356C131.471 169.525 129.373 170.11 127.013 170.11C123.694 170.11 120.969 169.003 118.839 166.79C116.73 164.577 115.676 161.758 115.676 158.334C115.676 154.889 116.751 152.06 118.902 149.847C121.073 147.613 123.829 146.496 127.17 146.496C129.508 146.496 131.565 147.08 133.34 148.249C135.135 149.398 136.43 150.995 137.223 153.041L133.089 155.39C132.755 153.908 132.066 152.759 131.022 151.945C129.978 151.11 128.684 150.692 127.139 150.692C125.072 150.692 123.433 151.381 122.222 152.759C121.031 154.137 120.436 155.985 120.436 158.303C120.436 160.62 121.042 162.468 122.253 163.846C123.464 165.203 125.103 165.882 127.17 165.882C128.736 165.882 130.03 165.475 131.053 164.66C132.077 163.846 132.755 162.698 133.089 161.215L137.223 163.564Z" fill="#039EA0"/>
<path d="M155.314 165.976C155.314 167.354 155.449 168.607 155.721 169.734H151.493C151.368 169.254 151.274 168.471 151.211 167.385C149.729 169.202 147.808 170.11 145.448 170.11C143.632 170.11 142.16 169.63 141.032 168.669C139.905 167.688 139.341 166.383 139.341 164.754C139.341 161.476 141.836 159.451 146.826 158.679L151.211 157.99V157.708C151.211 156.893 150.908 156.277 150.303 155.86C149.718 155.421 148.893 155.202 147.829 155.202C145.407 155.202 143.945 156.257 143.444 158.365L139.968 155.86C141.408 152.895 144.081 151.413 147.985 151.413C150.344 151.413 152.151 151.945 153.403 153.01C154.677 154.075 155.314 155.588 155.314 157.551V165.976ZM143.663 164.566C143.663 165.172 143.903 165.652 144.383 166.007C144.864 166.341 145.511 166.508 146.325 166.508C147.641 166.508 148.779 166.091 149.739 165.255C150.72 164.42 151.211 163.23 151.211 161.685V161.466L148.142 161.967C146.492 162.238 145.333 162.572 144.665 162.969C143.997 163.345 143.663 163.877 143.663 164.566Z" fill="#039EA0"/>
<path d="M159.274 169.734V151.788H163.533V154.451C164.139 153.49 164.869 152.749 165.725 152.227C166.582 151.684 167.5 151.413 168.482 151.413C169.296 151.413 170.037 151.58 170.705 151.914C171.373 152.227 171.874 152.624 172.208 153.104L170.298 156.737C169.797 155.902 168.951 155.484 167.761 155.484C166.529 155.484 165.517 156.069 164.723 157.238C163.93 158.386 163.533 160.192 163.533 162.656V169.734H159.274Z" fill="#039EA0"/>
<path d="M189.686 164.88C188.997 166.571 187.963 167.865 186.585 168.763C185.207 169.661 183.579 170.11 181.7 170.11C178.985 170.11 176.793 169.254 175.123 167.542C173.452 165.809 172.617 163.554 172.617 160.777C172.617 157.958 173.432 155.693 175.06 153.981C176.689 152.269 178.86 151.413 181.574 151.413C184.456 151.413 186.669 152.373 188.214 154.294C189.78 156.215 190.427 158.783 190.156 161.998H177.096C177.138 163.272 177.587 164.326 178.443 165.162C179.32 165.976 180.426 166.383 181.762 166.383C183.955 166.383 185.343 165.318 185.928 163.188L189.686 164.88ZM181.543 155.077C180.395 155.077 179.434 155.39 178.662 156.016C177.889 156.643 177.419 157.478 177.252 158.522H185.74C185.594 157.478 185.134 156.643 184.362 156.016C183.61 155.39 182.671 155.077 181.543 155.077Z" fill="#039EA0"/>
<path d="M192.978 169.734V151.788H197.237V154.451C197.843 153.49 198.574 152.749 199.43 152.227C200.286 151.684 201.204 151.413 202.186 151.413C203 151.413 203.741 151.58 204.409 151.914C205.078 152.227 205.579 152.624 205.913 153.104L204.002 156.737C203.501 155.902 202.656 155.484 201.465 155.484C200.234 155.484 199.221 156.069 198.428 157.238C197.634 158.386 197.237 160.192 197.237 162.656V169.734H192.978Z" fill="#039EA0"/>
<path d="M217.856 169.734H212.845L221.677 147.122H226.782L235.519 169.734H230.477L228.629 164.598H219.704L217.856 169.734ZM221.395 159.963L221.113 160.777H227.22L226.938 159.963C225.268 155.536 224.37 152.958 224.245 152.227H224.151C224.088 152.624 223.169 155.202 221.395 159.963Z" fill="#039EA0"/>
<path d="M241.585 177H237.326V151.788H241.585V154.701C242.274 153.657 243.151 152.853 244.216 152.29C245.302 151.705 246.45 151.413 247.661 151.413C249.791 151.413 251.586 152.279 253.048 154.012C254.509 155.724 255.24 157.958 255.24 160.714C255.24 163.512 254.478 165.777 252.954 167.51C251.451 169.243 249.572 170.11 247.317 170.11C246.147 170.11 245.051 169.87 244.028 169.39C243.005 168.909 242.191 168.231 241.585 167.354V177ZM242.869 156.768C242.013 157.791 241.585 159.127 241.585 160.777C241.585 162.426 242.013 163.763 242.869 164.786C243.746 165.809 244.863 166.32 246.22 166.32C247.598 166.32 248.715 165.809 249.572 164.786C250.428 163.742 250.856 162.395 250.856 160.746C250.856 159.096 250.428 157.76 249.572 156.737C248.736 155.714 247.63 155.202 246.252 155.202C244.874 155.202 243.746 155.724 242.869 156.768Z" fill="#039EA0"/>
<path d="M262.26 177H258.001V151.788H262.26V154.701C262.949 153.657 263.826 152.853 264.891 152.29C265.977 151.705 267.125 151.413 268.336 151.413C270.466 151.413 272.262 152.279 273.723 154.012C275.185 155.724 275.915 157.958 275.915 160.714C275.915 163.512 275.153 165.777 273.629 167.51C272.126 169.243 270.247 170.11 267.992 170.11C266.823 170.11 265.726 169.87 264.703 169.39C263.68 168.909 262.866 168.231 262.26 167.354V177ZM263.545 156.768C262.689 157.791 262.26 159.127 262.26 160.777C262.26 162.426 262.689 163.763 263.545 164.786C264.421 165.809 265.539 166.32 266.896 166.32C268.274 166.32 269.391 165.809 270.247 164.786C271.103 163.742 271.531 162.395 271.531 160.746C271.531 159.096 271.103 157.76 270.247 156.737C269.412 155.714 268.305 155.202 266.927 155.202C265.549 155.202 264.421 155.724 263.545 156.768Z" fill="#039EA0"/>
<path d="M80.1766 119.601C90.0395 111.906 95.292 92.6644 96.3656 85.6646C97.4393 78.6543 100.102 69.644 102.987 64.7389C105.871 59.8443 112.176 50.3182 109.376 45.7394C109.376 45.7394 109.849 42.7711 107.881 41.3395C105.913 39.908 103.071 42.7605 102.513 43.6658C102.513 43.6658 101.46 43.5395 99.555 46.3604C97.6498 49.1814 93.7131 55.4444 92.5342 57.2128C91.3553 58.9811 90.3658 62.3916 89.5974 63.8547C88.8395 65.3178 87.6712 70.244 81.9766 74.8649C81.9766 74.8649 86.5764 69.8124 88.3974 63.3073C90.2184 56.8022 93.0499 54.1286 94.0394 52.7287C95.0288 51.3287 98.8077 45.7183 99.8603 44.4342C100.902 43.15 102.26 42.8553 102.26 42.8553C102.26 42.8553 103.85 40.6553 106.018 40.1816C108.186 39.708 110.923 41.7079 110.092 45.5078C110.092 45.5078 112.976 48.8235 109.681 54.8128C106.386 60.8021 101.944 68.6861 100.387 72.7597C98.8393 76.8227 98.3024 79.0753 98.3024 79.0753C98.3024 79.0753 102.987 76.3596 105.113 75.107C107.25 73.8544 112.955 70.7282 115.649 68.5177C118.344 66.3072 125.27 61.5074 125.081 57.7917C125.081 57.7917 114.46 63.5494 112.176 64.8441C109.902 66.1283 105.681 68.7809 103.776 69.6229C103.776 69.6229 106.986 67.1598 108.965 65.823C110.944 64.4862 122.607 58.3496 125.702 56.7075C128.807 55.0549 141.322 49.2551 137.617 42.6553C137.617 42.6553 130.565 47.0025 126.112 49.1603C121.66 51.3182 117.133 53.3813 116.228 53.9076C115.312 54.4339 110.281 57.5706 108.713 58.4864C108.713 58.4864 112.807 55.4549 114.039 54.6549C115.27 53.8444 128.775 46.5288 131.028 45.3183C133.291 44.1079 139.828 41.35 141.449 38.4028C143.08 35.4555 142.691 31.8556 140.459 30.8556C138.217 29.8451 129.038 37.1817 123.586 39.5922C118.123 42.0027 114.439 42.4658 112.765 43.5816C111.092 44.7078 110.618 45.1605 110.618 45.1605C110.618 45.1605 112.523 43.2342 113.449 42.3816C114.376 41.529 123.523 32.8661 125.639 29.8135C127.754 26.761 127.491 21.919 125.46 20.0348C123.428 18.1507 119.491 24.2768 117.555 26.3189C115.618 28.3609 103.776 36.9396 100.008 40.2448C96.2393 43.55 88.1659 51.9076 84.9975 54.0023C81.8292 56.097 79.503 56.8233 77.2925 61.5705C75.082 66.3178 69.2927 81.9279 67.3033 91.696C61.8508 118.411 51.8406 128.506 51.8511 128.506C58.3141 127.39 70.2927 127.306 80.1556 119.611L80.1766 119.601Z" fill="#ffff"/>
<path d="M146.964 38.4035C148.595 41.3508 155.132 44.1086 157.384 45.3191C159.647 46.5296 173.142 53.8452 174.373 54.6557C175.605 55.4662 179.7 58.4872 179.7 58.4872C178.131 57.5714 173.089 54.4241 172.184 53.9083C171.268 53.382 166.742 51.3189 162.3 49.1611C157.848 47.0033 150.795 42.656 150.795 42.656C147.09 49.2558 159.616 55.0662 162.711 56.7083C165.816 58.3609 177.468 64.4975 179.447 65.8238C181.426 67.1606 184.636 69.6237 184.636 69.6237C182.731 68.7816 178.51 66.1291 176.236 64.8449C173.963 63.5607 163.332 57.7924 163.332 57.7924C163.142 61.5081 170.079 66.3185 172.763 68.5185C175.458 70.7289 181.163 73.8552 183.299 75.1078C185.436 76.3604 190.11 79.0761 190.11 79.0761C190.11 79.0761 189.573 76.8235 188.026 72.7605C186.478 68.6974 182.026 60.8029 178.731 54.8136C175.436 48.8243 178.321 45.5086 178.321 45.5086C177.5 41.7087 180.236 39.7087 182.394 40.1824C184.563 40.6561 186.152 42.856 186.152 42.856C186.152 42.856 187.499 43.1613 188.552 44.4349C189.594 45.7191 193.383 51.3189 194.373 52.7294C195.362 54.1294 198.194 56.803 200.015 63.3081C201.846 69.8132 206.436 74.8657 206.436 74.8657C200.741 70.2342 199.573 65.3186 198.815 63.8554C198.057 62.3923 197.067 58.9819 195.878 57.2135C194.699 55.4451 190.762 49.1822 188.857 46.3612C186.952 43.5402 185.899 43.6665 185.899 43.6665C185.341 42.7613 182.499 39.9087 180.531 41.3403C178.563 42.7718 179.036 45.7402 179.036 45.7402C176.236 50.319 182.552 59.8345 185.426 64.7396C188.31 69.6342 190.973 78.655 192.047 85.6654C193.12 92.6757 198.373 111.907 208.236 119.601C218.098 127.296 230.077 127.38 236.54 128.496C236.54 128.496 226.54 118.401 221.088 91.6862C219.088 81.9181 213.309 66.3185 211.099 61.5608C208.888 56.8135 206.562 56.0872 203.394 53.9926C200.225 51.8979 192.152 43.5507 188.384 40.235C184.615 36.9299 172.773 28.3512 170.837 26.3091C168.9 24.2671 164.963 18.1409 162.932 20.0251C160.9 21.9092 160.637 26.7407 162.753 29.8038C164.868 32.8563 174.015 41.5297 174.942 42.3718C175.868 43.2244 177.773 45.1507 177.773 45.1507C177.773 45.1507 177.3 44.6981 175.626 43.5718C173.952 42.4455 170.268 41.9929 164.805 39.5824C159.342 37.172 150.164 29.8353 147.932 30.8458C145.69 31.8563 145.311 35.4457 146.943 38.393L146.964 38.4035Z" fill="#ffff"/>
<path d="M144.228 132.79C197.889 132.79 247.256 137.295 286.582 144.853C287.203 144.948 287.834 145.032 288.455 145.127C251.835 134.464 200.763 127.833 144.228 127.833C87.6923 127.833 36.62 134.464 0 145.127C0.621035 145.032 1.2526 144.948 1.87363 144.853C41.1989 137.306 90.5659 132.79 144.228 132.79Z" fill="#039EA0"/>
<path d="M143.322 67.6342H135.838V75.1182H143.322V67.6342Z" fill="#171E54"/>
<path d="M152.617 67.6342H145.133V75.1182H152.617V67.6342Z" fill="#171E54"/>
<path d="M143.322 58.2343H135.838V65.7183H143.322V58.2343Z" fill="#171E54"/>
<path d="M152.617 58.2343H145.133V65.7183H152.617V58.2343Z" fill="#171E54"/>
<path d="M153.996 0.193842C148.259 -0.785079 144.933 2.23589 144.228 2.95166C143.523 2.22536 140.196 -0.785079 134.46 0.193842C127.965 1.29907 125.66 7.46732 129.544 14.9934C132.691 21.1091 140.765 25.5405 143.691 27.0036C143.902 27.1089 144.081 27.1931 144.228 27.2668C144.375 27.1931 144.554 27.1089 144.765 27.0036C147.691 25.551 155.754 21.1091 158.912 14.9934C162.796 7.46732 160.501 1.29907 153.996 0.193842ZM151.038 15.025C151.038 15.4461 150.691 15.7934 150.27 15.7934H147.144C146.723 15.7934 146.375 16.1408 146.375 16.5618V19.688C146.375 20.1091 146.028 20.4564 145.607 20.4564H142.838C142.417 20.4564 142.07 20.1091 142.07 19.688V16.5618C142.07 16.1408 141.723 15.7934 141.302 15.7934H138.175C137.754 15.7934 137.407 15.4461 137.407 15.025V12.2567C137.407 11.8356 137.754 11.4883 138.175 11.4883H141.302C141.723 11.4883 142.07 11.1409 142.07 10.7199V7.59364C142.07 7.1726 142.417 6.82524 142.838 6.82524H145.607C146.028 6.82524 146.375 7.1726 146.375 7.59364V10.7199C146.375 11.1409 146.723 11.4883 147.144 11.4883H150.27C150.691 11.4883 151.038 11.8356 151.038 12.2567V15.025Z" fill="#039EA0"/>
<path d="M158.228 114.127C157.164 112.643 154.217 110.254 151.102 111.759C151.102 111.759 152.017 111.127 152.723 110.927C152.723 110.927 152.754 110.117 152.365 109.706C152.365 109.706 152.659 109.98 152.691 110.127C152.691 110.127 153.038 107.085 153.438 106.117C153.838 105.149 154.028 103.959 154.154 103.591C154.28 103.222 154.375 103.022 154.238 102.991C154.101 102.959 154.838 102.043 155.565 102.349C155.565 102.349 155.428 102.401 155.47 102.465C155.512 102.528 155.701 102.549 155.807 102.538C155.912 102.528 155.933 102.559 155.954 102.591C155.975 102.622 156.175 102.833 156.333 102.77C156.491 102.707 156.501 102.759 156.554 102.822C156.607 102.886 156.691 103.001 156.943 102.938C157.186 102.875 157.343 102.938 157.407 102.991C157.47 103.033 157.912 103.422 158.07 103.233C158.228 103.043 158.343 102.707 158.175 102.559C158.007 102.412 156.986 102.086 156.807 102.022C156.638 101.959 156.238 101.959 156.143 101.886C156.049 101.812 155.859 101.665 155.733 101.738C155.733 101.738 154.575 101.528 154.038 102.222C154.038 102.222 154.144 102.865 153.922 103.117C153.701 103.37 153.586 103.37 153.575 103.464C153.565 103.559 153.428 104.98 153.112 105.401C152.796 105.822 153.333 104.601 153.354 104.286C153.375 103.97 153.365 103.464 153.544 103.275C153.722 103.086 154.038 102.454 153.922 102.086C153.807 101.717 153.607 101.159 153.449 100.812C153.291 100.465 151.607 98.3278 151.249 98.0752C150.891 97.8225 150.68 97.5278 150.575 97.3383C150.47 97.1489 150.417 97.0436 150.312 97.0331C150.207 97.0226 150.175 96.7068 150.123 96.4647C150.07 96.2226 150.617 95.8963 150.502 95.0226C150.386 94.149 149.944 92.2122 148.786 91.8964C147.638 91.5806 145.102 91.4753 145.154 93.1069C145.154 93.1069 144.702 94.991 144.67 95.3384C144.639 95.6858 144.87 95.7068 144.765 95.8857C144.66 96.0647 144.481 96.7699 144.417 96.9489C144.354 97.1278 144.439 97.3173 144.681 97.3489C144.923 97.3805 145.007 97.3173 145.081 97.4752C145.154 97.6331 145.27 97.7383 145.386 97.7383C145.502 97.7383 145.607 97.9278 145.607 98.1173C145.607 98.3067 145.712 98.3383 145.744 98.4857C145.775 98.633 145.681 99.1699 146.175 99.1699C146.175 99.1699 145.786 99.3067 145.575 98.9172C145.575 98.9172 144.891 99.7172 144.512 100.349C144.133 100.98 143.418 101.749 143.218 102.117C143.018 102.486 142.744 103.233 142.596 103.549C142.449 103.864 142.207 103.875 142.112 104.033C142.018 104.191 141.87 104.464 141.828 104.507C141.786 104.549 140.628 104.801 139.997 104.907C139.365 105.012 138.428 105.043 138.344 105.012C138.26 104.98 138.123 104.538 138.007 104.412C137.891 104.286 137.481 104.328 137.344 104.338C137.207 104.349 137.028 104.359 136.912 104.359C136.797 104.359 136.67 104.401 136.491 104.38C136.312 104.359 136.155 104.17 136.039 104.349C135.923 104.528 135.755 104.717 135.66 104.717C135.565 104.717 135.018 104.896 135.07 105.075C135.123 105.254 135.418 105.212 135.523 105.222C135.628 105.233 135.765 105.391 135.839 105.485C135.912 105.58 136.049 105.654 136.018 105.717C135.986 105.78 135.881 105.854 135.839 105.78C135.797 105.707 134.944 105.138 134.134 104.654C133.323 104.17 131.986 104.391 131.481 105.433C130.976 106.475 130.386 109.001 130.386 109.001L131.113 105.128C131.113 105.128 130.818 104.907 130.502 104.738C130.186 104.57 129.386 104.233 129.186 104.149C128.986 104.064 128.734 104.033 128.934 103.97C129.134 103.896 129.334 103.959 129.428 103.864C129.534 103.77 129.555 103.58 129.544 103.401C129.544 103.222 129.523 103.107 129.586 103.012C129.649 102.917 129.776 102.58 129.871 102.465C129.965 102.349 130.06 102.201 130.039 102.022C130.007 101.843 129.786 101.475 129.849 101.17C129.913 100.865 129.934 100.707 129.871 100.465C129.807 100.222 129.902 99.7278 129.871 99.5909C129.839 99.4541 129.807 98.7699 129.039 98.4752C128.271 98.1804 127.028 97.9699 125.786 98.6225C124.544 99.2751 124.765 101.391 124.471 102.17C124.176 102.949 123.86 104.37 123.26 104.843C122.671 105.317 121.123 107.349 121.102 109.306C121.081 111.264 120.744 112.148 120.713 112.38C120.681 112.612 120.85 113.443 120.934 113.643C121.018 113.843 121.208 114.148 121.229 114.254C121.25 114.359 121.302 114.79 121.65 114.822C121.65 114.822 121.376 114.864 121.334 114.864C121.292 114.864 121.208 115.485 121.26 115.706C121.313 115.927 121.65 116.401 121.797 116.59C121.944 116.78 122.523 117.769 122.681 117.948C122.839 118.127 122.997 118.033 122.85 118.222C122.702 118.411 122.208 118.969 122.25 119.306C122.292 119.643 122.629 120.475 122.639 120.706C122.65 120.948 122.671 122.285 123.355 122.611C124.039 122.938 125.123 122.917 125.523 122.769C125.923 122.622 125.829 122.422 125.829 122.369C125.829 122.317 124.986 121.948 124.986 121.948C124.986 121.948 125.702 122.117 125.881 122.169C125.881 122.169 126.102 122.106 126.186 122.022C126.281 121.938 126.313 121.969 126.407 121.78C126.502 121.59 126.755 121.064 126.786 120.948C126.818 120.822 126.85 120.664 126.85 120.664C126.85 120.664 126.144 120.422 126.26 120.285C126.376 120.148 126.365 120.085 126.365 120.085C126.365 120.085 125.26 120.18 124.723 119.727C124.186 119.275 123.355 118.348 123.208 117.98C123.081 117.654 122.408 116.254 122.187 115.864C122.387 116.212 123.113 117.433 123.218 117.643C123.344 117.885 123.618 118.443 123.997 118.801C124.376 119.159 125.081 119.854 125.692 119.948C126.292 120.043 126.492 119.906 126.544 120.096C126.597 120.285 126.407 120.338 126.513 120.39C126.618 120.443 127.586 120.969 127.586 120.969C127.586 120.969 127.807 120.38 128.281 120.39C128.755 120.401 129.828 120.653 130.344 120.253C130.344 120.253 130.197 120.58 129.576 120.59C128.955 120.601 128.428 120.401 128.081 120.611C127.734 120.822 127.597 121.085 127.681 121.338C127.765 121.58 129.081 122.496 129.523 122.717C129.965 122.938 131.628 123.443 131.692 123.443C131.755 123.443 131.692 123.464 131.692 123.464C131.692 123.464 130.197 123.338 129.839 123.159C129.839 123.159 131.049 125.527 132.965 124.717C132.965 124.717 133.186 124.843 133.334 124.885C133.481 124.927 134.828 125.338 134.828 125.338C134.828 125.338 135.249 125.611 135.302 125.559C135.355 125.506 136.165 123.201 136.165 123.201C136.165 123.201 136.491 123.159 136.565 123.18C136.639 123.201 136.891 123.232 136.933 123.18C136.976 123.127 136.755 122.885 136.702 122.811C136.649 122.738 136.386 122.653 136.449 122.517C136.512 122.38 137.049 120.917 137.049 120.917C137.049 120.917 137.239 120.917 137.639 120.843C137.639 120.843 138.986 122.422 140.007 122.864C140.007 122.864 139.954 123.148 140.007 123.18C140.06 123.211 140.186 123.306 140.06 123.317H139.933C139.933 123.317 139.786 123.211 139.733 123.317C139.681 123.422 139.712 123.717 139.712 123.717C139.712 123.717 138.112 123.422 137.091 124.359C136.07 125.295 135.86 126.243 135.87 126.959C135.881 127.674 136.481 129.327 138.47 129.527C140.46 129.727 141.765 127.569 141.681 126.401C141.597 125.232 141.049 124.622 141.049 124.622C141.049 124.622 141.123 124.043 141.07 123.78C141.018 123.527 140.733 123.274 140.733 123.274C140.733 123.274 140.87 123.201 141.112 123.274C141.354 123.348 143.091 123.759 144.207 123.222C144.207 123.222 144.228 124.138 144.586 124.527C144.944 124.917 145.512 125.285 145.86 125.348C145.86 125.348 146.786 127.538 149.891 128.474C152.996 129.411 156.996 126.885 158.649 122.653C160.301 118.422 159.259 115.643 158.196 114.159L158.228 114.127ZM130.702 116.59C130.66 116.864 130.344 117.527 130.313 117.559C130.271 117.601 130.092 117.601 130.092 117.601C130.092 117.601 129.965 117.064 129.913 116.917C129.86 116.769 130.639 115.475 130.744 115.285C130.744 115.285 130.744 116.317 130.713 116.59H130.702ZM137.081 119.054L136.46 120.79C136.46 120.79 136.27 120.569 136.155 120.569C136.039 120.569 135.976 120.59 136.018 120.79C136.06 120.99 136.365 121.127 136.302 121.317C136.239 121.506 136.186 121.696 136.144 121.59C136.102 121.485 136.144 121.148 136.06 121.075C135.986 121.001 135.818 121.064 135.839 120.832C135.86 120.601 135.955 119.611 136.049 119.401C136.155 119.18 136.176 118.769 136.176 118.769H136.302C136.302 118.769 136.491 118.022 136.576 117.854C136.66 117.685 136.839 117.18 136.839 117.18C136.839 117.18 136.828 118.117 137.081 119.011C137.333 119.906 137.081 119.064 137.081 119.064V119.054ZM141.733 116.675C141.765 116.601 141.818 116.359 141.818 116.359L142.249 116.401L141.733 116.79C141.733 116.79 141.702 116.759 141.733 116.675ZM138.997 118.864C138.997 118.864 138.797 118.896 138.607 118.832C138.418 118.78 138.333 119.075 138.323 119.032C138.312 118.99 138.165 118.538 138.123 118.369C138.081 118.201 138.007 118.233 138.281 117.801C138.554 117.369 139.176 117.243 139.176 117.243L138.986 118.864H138.997ZM138.007 117.243C138.007 117.243 137.923 115.454 138.376 114.633C138.376 114.633 139.112 115.096 139.344 115.138L139.186 116.633C139.186 116.633 138.249 116.78 138.018 117.243H138.007ZM140.218 120.706C140.218 120.706 139.47 120.727 139.365 120.717C139.26 120.717 139.302 120.611 139.302 120.548C139.302 120.496 139.386 120.443 139.481 120.39C139.576 120.338 139.628 120.38 139.66 120.401C139.691 120.422 139.849 120.401 139.902 120.359C139.954 120.327 140.028 120.264 140.028 120.169L140.281 120.148L140.228 120.696L140.218 120.706ZM140.07 119.38C140.07 119.38 140.102 119.106 140.27 119.106V119.401L140.07 119.369V119.38ZM140.333 117.801L139.523 118.39V118.369L139.681 117.211C139.681 117.211 139.839 117.233 139.87 117.254C139.902 117.275 139.986 117.296 140.028 117.348C140.07 117.411 140.249 117.475 140.333 117.475C140.407 117.475 140.333 117.811 140.333 117.811V117.801ZM140.67 116.39C140.449 116.422 140.249 116.517 140.07 116.517C139.891 116.517 139.691 116.527 139.691 116.527L139.797 115.243C139.797 115.243 140.912 115.317 141.144 115.264L141.039 116.433C141.039 116.433 140.881 116.359 140.67 116.39ZM142.839 121.969C142.786 122.169 142.828 122.317 142.618 122.317C142.407 122.317 141.06 122.096 140.944 121.99C140.828 121.885 140.912 121.611 140.912 121.611C141.039 121.675 141.333 121.696 141.544 121.611C141.754 121.527 141.691 121.264 141.691 121.264L142.933 121.169C142.933 121.169 142.912 121.78 142.86 121.969H142.839ZM142.902 120.611C142.902 120.611 141.628 120.78 141.628 120.675C141.628 120.569 141.765 120.485 141.765 120.485L142.944 120.401L142.902 120.622V120.611ZM142.702 119.738L142.965 119.548L142.986 119.738H142.691H142.702ZM143.049 117.675C143.039 117.864 143.018 118.675 143.018 118.675L141.639 119.822L141.597 118.811C141.597 118.811 141.891 118.801 141.944 118.696C141.996 118.59 141.797 118.538 141.702 118.464C141.607 118.39 141.649 118.201 141.67 118.148C141.691 118.096 142.912 117.264 142.912 117.264C142.912 117.264 143.07 117.496 143.049 117.685V117.675ZM144.533 116.864C144.533 116.864 144.881 117.001 144.86 117.159C144.839 117.317 144.533 117.422 144.533 117.422V116.864ZM144.27 121.675C144.239 121.853 143.817 122.001 143.817 122.001L143.923 121.159C143.923 121.159 144.165 121.085 144.196 121.117C144.228 121.148 144.302 121.496 144.27 121.675ZM144.86 119.822L144.375 118.685C144.375 118.685 144.975 118.896 145.007 119.001C145.007 119.001 145.007 119.001 145.007 119.011C145.017 119.148 144.849 119.811 144.849 119.811L144.86 119.822ZM145.07 118.801C145.07 118.801 144.775 118.759 144.702 118.654C144.628 118.548 145.228 117.748 145.386 117.664L145.07 118.801ZM145.796 116.443C145.775 116.58 145.46 116.738 145.46 116.738V116.264C145.554 116.233 145.817 116.306 145.796 116.433V116.443ZM145.796 115.633C145.702 115.633 145.312 115.633 145.312 115.633C145.312 115.633 145.502 115.338 145.628 115.348C145.754 115.348 145.87 115.38 145.87 115.38C145.87 115.38 145.891 115.633 145.786 115.643L145.796 115.633ZM158.164 117.19C158.301 117.843 157.88 118.001 157.88 118.001L153.375 119.232L155.417 113.233C157.333 114.043 158.017 116.527 158.154 117.18L158.164 117.19ZM152.628 112.769C154.017 112.327 154.512 112.906 154.512 112.906L152.049 118.517L152.628 112.769ZM152.575 121.243L154.259 123.696L153.238 123.832V124.127L151.323 124.38L152.575 121.264V121.243ZM151.07 116.18C151.07 116.18 150.965 116.559 150.944 116.738C150.923 116.917 150.502 116.18 150.502 116.18H151.07ZM149.933 117.254L151.354 119.548L148.291 120.464C149.207 119.632 149.933 117.254 149.933 117.254ZM148.712 115.317C148.796 115.369 148.807 115.548 148.807 115.548H148.523C148.554 115.475 148.723 115.317 148.723 115.317H148.712ZM148.091 116.18H148.702C148.702 116.18 148.27 117.696 148.028 118.18C148.028 118.18 147.238 117.759 147.26 117.769C147.281 117.78 147.775 116.496 148.102 116.19L148.091 116.18ZM147.081 118.369L147.754 118.832C147.754 118.832 146.933 119.822 146.66 120.096C146.66 120.096 146.796 118.98 147.091 118.369H147.081ZM149.175 126.601C149.175 126.601 148.165 126.032 147.838 125.559C147.838 125.559 148.481 125.485 148.575 125.464C148.67 125.443 148.754 125.348 148.796 125.211C148.838 125.074 148.775 125.064 148.923 125.043C149.07 125.022 149.817 124.959 149.817 124.959L149.186 126.601H149.175ZM148.744 124.58C148.744 124.58 148.607 124.369 148.344 124.39C148.081 124.411 147.207 124.474 147.207 124.474C147.207 124.474 146.238 122.338 146.681 122.001L151.186 120.864L149.965 124.474L148.744 124.58ZM150.196 127.074L151.112 124.917L153.375 124.759C153.375 124.759 153.522 124.938 153.838 124.832C154.154 124.727 154.912 124.695 154.912 124.695L155.344 125.317C155.344 125.317 153.754 127.495 150.196 127.064V127.074ZM156.08 124.58L153.386 120.327L158.196 118.864C158.196 118.864 158.133 122.432 156.08 124.58Z" fill="#039EA0"/>
<path d="M113.892 111.527C113.871 111.359 113.808 111.232 113.703 111.085C113.597 110.938 113.639 110.759 113.481 110.548C113.324 110.338 113.187 109.896 113.018 109.622C112.85 109.348 112.513 108.569 111.997 108.138C111.482 107.706 110.755 107.496 110.545 107.369C110.334 107.243 109.903 107.001 109.934 106.832C109.966 106.664 109.955 106.527 109.955 106.527C109.955 106.527 110.25 106.327 110.334 105.843C110.334 105.843 110.661 105.622 110.745 105.306C110.913 104.696 111.25 101.517 108.955 101.633C108.997 101.296 109.187 100.98 109.187 100.98C108.576 101.001 108.524 101.517 108.524 101.517C108.313 101.369 107.755 101.401 107.755 101.401C108.008 101.475 108.155 101.601 108.24 101.748C105.155 102.485 107.345 106.232 107.345 106.232C107.345 106.232 107.418 106.348 107.534 106.485C107.65 106.622 107.745 106.622 107.724 106.843C107.703 107.064 107.397 107.296 107.145 107.338C106.892 107.38 106.324 107.843 106.166 107.959C106.008 108.075 105.608 108.348 105.397 109.338C105.187 110.317 104.945 110.59 105.019 111.232C105.092 111.885 104.976 112.285 104.924 112.832C104.882 113.38 104.829 114.148 104.882 114.537C104.934 114.927 104.892 115.59 104.892 115.59C104.892 115.59 104.776 115.59 104.745 115.716C104.713 115.843 104.682 115.485 104.471 115.359C104.261 115.232 104.513 115.053 104.271 114.895C104.029 114.737 104.04 114.285 104.061 114.074C104.082 113.864 104.24 113.706 104.019 113.064C103.798 112.422 103.903 112.106 103.808 111.885C103.713 111.664 103.934 111.653 103.924 111.369C103.924 111.085 104.398 111.338 103.808 110.864C103.219 110.39 103.229 110.411 103.313 110.18C103.398 109.948 103.587 109.832 103.566 109.517C103.545 109.201 103.998 109.169 103.566 108.464C103.134 107.759 102.734 106.19 101.124 105.98C99.5135 105.769 99.0924 106.675 98.8714 107.401C98.6503 108.127 99.1029 108.706 98.5451 109.18C97.9872 109.653 98.1766 109.78 98.4819 110.096C98.7872 110.411 98.9977 110.717 98.103 110.959C97.5661 111.169 97.5872 112.411 97.4293 112.916C97.2714 113.422 97.3872 113.695 97.1661 113.843C96.9451 113.99 96.9135 114.559 96.5241 114.98C96.2504 115.285 96.282 116.064 96.2714 116.169C96.2609 116.274 96.0293 116.548 96.1662 116.79C96.303 117.032 96.6504 117.127 96.7241 117.127C96.7977 117.127 96.9346 117.074 97.0609 116.969C97.1872 116.864 97.2398 116.706 97.3346 116.716C97.4293 116.727 97.4925 116.801 97.5346 116.485C97.5767 116.169 97.4819 116.159 97.4714 116.022C97.4609 115.885 97.6609 115.801 97.7135 115.653C97.7661 115.506 97.7872 115.422 97.9977 115.253C98.2082 115.085 98.1661 114.959 98.2924 114.853C98.4187 114.748 98.4819 114.716 98.4503 114.58C98.4187 114.443 98.6187 114.411 98.5977 114.264C98.6293 114.411 98.7345 114.98 98.724 115.201C98.724 115.474 98.8187 115.737 98.8398 115.906C98.8608 116.074 98.7766 116.601 98.7977 116.843C98.8187 117.085 98.9977 117.337 98.9135 118.001C98.8293 118.674 99.145 119.537 98.9135 120.316C98.6714 121.095 98.7345 122.064 98.8398 122.506C98.945 122.948 98.9029 123.653 99.2924 124.106C99.6819 124.558 100.482 125.358 100.671 125.537C100.671 125.537 100.671 125.916 100.587 126.148C100.503 126.379 100.387 126.485 100.471 126.695C100.556 126.916 100.387 126.927 100.292 126.99C100.198 127.053 100.166 127.232 100.229 127.316C100.292 127.4 100.303 127.485 100.366 127.474C100.429 127.463 100.45 127.821 100.366 127.948C100.282 128.074 100.082 128.284 100.24 128.463C100.356 128.6 100.356 128.579 100.356 128.558C100.377 128.621 100.513 128.937 100.787 128.821C100.787 128.821 100.84 129.032 101.082 128.916C101.082 128.916 101.198 128.958 101.303 128.895C101.303 128.895 101.398 128.937 101.524 128.863C101.524 128.863 101.724 128.779 101.619 128.621C101.513 128.463 101.355 128.411 101.355 128.084C101.355 127.927 101.355 127.863 101.355 127.842C101.387 127.853 101.471 127.895 101.482 127.706C101.492 127.495 101.534 127.327 101.661 127.221C101.798 127.106 101.745 126.874 101.84 126.716C101.934 126.558 101.987 126.369 102.04 126.116C102.103 125.863 102.155 125.611 102.271 125.274C102.387 124.937 102.471 124.664 102.45 124.369C102.429 124.074 102.471 123.821 102.555 123.485C102.64 123.158 102.798 122.443 102.945 122.085C103.092 121.727 103.44 120.706 103.471 120.106C103.503 119.506 103.629 118.958 103.608 118.622C103.608 118.622 103.924 118.243 103.871 118.032C103.819 117.822 103.671 117.664 103.566 117.19C103.461 116.716 103.271 116.264 103.25 116.243C103.229 116.222 102.955 115.727 103.029 115.685C103.103 115.643 103.092 115.801 103.198 115.948C103.303 116.095 103.671 116.737 103.84 116.906C104.008 117.074 104.576 117.643 104.65 117.822C104.724 118.001 104.808 117.822 104.808 117.822C104.808 117.822 104.724 118.264 104.934 118.432C104.934 118.432 105.008 118.864 105.366 119.232C105.366 119.232 105.408 120.043 105.429 120.39C105.45 120.737 105.503 121.158 105.461 121.432C105.419 121.706 105.408 122.085 105.461 122.348C105.513 122.611 105.313 123.285 105.492 123.832C105.671 124.379 105.871 124.895 105.787 125.042C105.703 125.19 105.64 125.316 105.755 125.558C105.871 125.8 105.787 125.811 105.892 126.053C105.997 126.295 106.103 126.327 105.913 126.653C105.724 126.979 105.429 127.358 105.345 127.4C105.261 127.442 104.755 127.748 104.85 127.969C104.85 127.969 104.85 128.158 104.934 128.211C104.934 128.211 105.05 128.379 105.145 128.348C105.145 128.348 105.419 128.463 105.619 128.348C105.619 128.348 105.976 128.453 106.25 128.263C106.25 128.263 106.419 128.316 106.629 127.832C106.84 127.348 107.05 127.316 107.124 127.106C107.197 126.895 107.197 126.432 107.197 126.263C107.197 126.095 107.376 126.116 107.145 125.706C107.145 125.706 107.45 125.253 107.271 124.79C107.197 124.464 107.429 123.958 107.429 123.643C107.429 123.327 107.429 123.158 107.397 123.074C107.366 122.99 107.524 122.885 107.429 122.653C107.334 122.421 107.808 122.379 107.724 121.937C107.64 121.495 107.608 121.379 107.692 121.19C107.776 121 107.65 120.737 107.65 120.59C107.65 120.443 107.755 120.106 107.829 119.79C107.903 119.474 107.861 118.885 107.955 119.116C108.05 119.348 108.092 120.001 108.071 120.243C108.05 120.485 108.05 120.779 107.997 121.043C107.945 121.306 107.829 121.422 107.871 121.8C107.913 122.179 108.061 122.253 107.829 122.495C107.661 122.621 107.966 123.064 107.976 123.095C107.987 123.127 107.766 123.148 107.871 123.39C107.976 123.632 107.987 123.474 107.892 123.811C107.797 124.148 107.945 124.148 107.892 124.485C107.84 124.821 107.818 124.874 107.787 125.19C107.755 125.506 107.808 125.611 107.766 125.716C107.724 125.821 107.629 125.674 107.65 126.063C107.671 126.453 107.808 126.379 107.808 126.379C107.808 126.379 107.692 126.569 107.703 126.674C107.713 126.779 107.787 126.906 107.787 126.906C107.787 126.906 107.713 127.127 107.766 127.39C107.818 127.653 107.566 127.706 107.734 128.032C107.903 128.358 108.05 128.39 108.187 128.527C108.324 128.653 108.671 128.769 108.829 128.748C108.987 128.727 109.376 128.79 109.397 128.706C109.418 128.621 109.608 128.642 109.65 128.59C109.692 128.537 109.797 128.653 109.913 128.579C110.029 128.506 110.208 128.642 110.176 128.495C110.145 128.348 110.503 128.453 109.903 128.074C109.303 127.695 108.924 127.842 108.903 127.306C108.882 126.769 108.987 127.274 108.934 126.832C108.934 126.832 109.345 126.8 109.324 126.327C109.303 125.853 109.408 125.737 109.471 125.537C109.534 125.337 109.618 124.99 109.692 124.611C109.776 124.232 109.955 123.685 109.955 123.327C109.955 122.969 110.134 123.021 110.029 122.516C109.924 122.011 110.313 121.095 110.334 120.822C110.355 120.548 110.618 119.527 110.682 118.969C110.745 118.411 110.818 117.558 110.766 117.369C110.713 117.18 111.039 117.274 111.082 116.832C111.124 116.38 110.997 116.169 111.029 116.011C111.06 115.853 111.429 115.316 111.439 115.422C111.45 115.527 111.26 115.811 111.229 115.885C111.197 115.959 111.039 116.001 111.145 116.169C111.25 116.337 111.471 116.106 111.524 115.99C111.576 115.874 111.724 115.664 111.871 115.485C112.018 115.306 112.113 115.264 112.239 115.116C112.366 114.969 112.345 114.822 112.566 114.695C112.787 114.569 112.787 114.464 112.776 114.264C112.766 114.064 112.892 113.843 113.05 113.653C113.208 113.464 113.197 113.306 113.418 113.095C113.639 112.885 113.618 112.769 113.692 112.495C113.766 112.222 113.839 111.948 113.881 111.874C113.924 111.801 113.966 111.727 113.945 111.559L113.892 111.527ZM101.103 121.969C101.061 122.127 100.871 122.516 100.924 122.348C100.977 122.179 100.966 121.822 100.977 121.695C100.977 121.579 101.113 121.4 101.134 121.369C101.177 121.527 101.134 121.822 101.092 121.979L101.103 121.969ZM112.366 111.853C112.25 112.211 112.387 112.59 112.166 112.874C111.945 113.148 111.903 113.295 111.829 113.411C111.745 113.527 111.576 113.653 111.524 113.843C111.471 114.032 111.208 114.095 111.145 114.222C111.082 114.348 110.892 114.432 110.945 114.306C110.997 114.18 110.976 113.874 110.987 113.443C110.997 113.011 110.903 112.769 111.071 112.369C111.239 111.969 111.103 111.759 111.124 111.653C111.145 111.548 111.303 111.001 111.324 110.801C111.324 110.801 111.587 110.59 111.66 110.548C111.734 110.517 111.734 110.759 111.966 110.906C112.197 111.053 112.387 111.19 112.355 111.401C112.324 111.611 112.471 111.506 112.355 111.864L112.366 111.853Z" fill="#039EA0"/>
<path d="M172.933 91.7173C172.933 91.7173 171.649 91.6226 171.112 92.6015C170.576 93.5804 170.807 94.612 170.744 95.0646C170.681 95.5172 170.891 95.833 171.049 96.0541C171.207 96.2751 171.544 96.4014 171.544 96.5277C171.544 96.654 171.544 96.8751 171.249 97.054C170.955 97.233 170.197 97.6014 169.523 97.8961C168.849 98.1908 168.47 98.5066 168.113 99.0645C167.755 99.6224 166.113 102.443 166.281 102.643C166.449 102.843 167.07 103.022 167.292 103.117C167.513 103.212 167.281 104.085 167.123 104.359C166.965 104.633 166.197 106.633 166.071 107.18C165.944 107.727 165.565 109.348 165.302 109.738L165.039 110.127C165.039 110.127 164.376 110.812 164.418 111.306L164.45 111.801C164.45 111.801 164.744 112.675 165.05 112.569C165.355 112.464 165.702 112.222 165.955 112.033C166.207 111.843 166.755 111.38 166.523 111.169C166.292 110.959 165.786 110.822 166.039 110.096C166.292 109.369 167.47 107.77 167.86 106.97C168.249 106.17 168.534 104.949 168.618 104.401C168.702 103.854 168.797 103.528 168.87 103.528C168.944 103.528 169.207 103.338 169.207 103.191C169.207 103.043 169.291 102.98 169.281 103.328C169.27 103.675 169.165 104.959 169.102 105.443C169.039 105.927 169.091 108.085 169.018 108.422C168.944 108.759 168.713 108.78 168.776 109.012C168.839 109.243 168.691 110.822 168.67 111.296C168.649 111.769 168.46 113.917 168.376 114.538C168.292 115.159 168.576 117.096 168.67 117.59C168.765 118.085 168.965 118.19 169.144 118.296C169.323 118.401 169.291 118.506 169.291 118.717C169.291 118.927 169.218 121.201 169.249 121.706C169.281 122.211 169.428 122.864 169.649 123.453C169.87 124.032 170.239 125.38 170.176 125.885C170.113 126.39 170.176 127.295 170.113 127.527C170.049 127.758 169.891 128.127 169.702 128.243C169.513 128.358 170.207 128.432 170.702 128.422C171.197 128.411 171.502 128.222 171.439 127.927C171.376 127.632 171.565 127.316 171.555 126.99C171.544 126.664 171.165 125.348 171.228 124.653C171.291 123.948 171.418 121.706 171.439 121.243C171.46 120.78 171.376 119.485 171.355 119.274C171.334 119.064 171.639 118.811 171.702 118.769C171.765 118.727 171.955 118.401 172.102 118.264C172.249 118.127 172.776 117.969 172.965 117.969C173.155 117.969 173.428 118.211 173.428 118.39C173.428 118.569 173.544 118.917 173.544 119.169C173.544 119.422 173.481 121.064 173.544 121.538C173.607 122.011 173.649 123.538 173.544 123.727C173.439 123.916 173.281 124.327 173.302 124.611C173.323 124.895 173.386 125.748 173.333 126.106C173.281 126.464 173.355 126.958 173.607 127.032C173.86 127.106 174.87 127.095 174.902 126.79C174.933 126.485 174.797 126.106 174.681 125.79C174.565 125.474 174.512 124.18 174.533 123.811C174.555 123.443 174.628 123.011 174.912 122.495C175.197 121.99 175.554 119.917 175.607 119.527C175.66 119.138 175.639 118.127 175.607 117.927C175.576 117.727 175.849 117.611 175.87 117.422C175.891 117.232 176.218 114.254 176.26 113.559C176.302 112.864 176.081 109.401 176.018 109.001C175.954 108.601 175.597 107.17 175.576 106.517C175.554 105.864 175.597 105.296 175.691 105.033C175.786 104.77 175.86 104.191 175.839 103.991C175.818 103.791 175.839 103.033 176.07 103.38C176.302 103.728 176.597 104.222 176.66 104.78C176.723 105.338 177.007 106.906 177.239 107.37L177.47 107.843C177.47 107.843 178.228 109.559 178.333 109.769C178.439 109.98 178.481 110.833 178.47 111.064C178.46 111.296 178.596 111.622 178.681 111.959C178.765 112.296 178.923 112.654 178.881 112.917C178.839 113.18 179.06 113.717 179.323 113.496C179.586 113.275 179.923 112.517 179.902 112.201C179.881 111.885 180.018 110.791 179.66 110.433C179.302 110.075 179.102 109.317 179.123 108.959C179.144 108.601 178.723 106.412 178.386 105.317C178.049 104.222 177.912 103.475 177.944 103.243C177.975 103.012 178.375 103.096 178.544 103.106C178.712 103.117 178.849 102.801 178.67 102.443C178.491 102.085 177.923 100.296 177.428 99.2855C176.933 98.2751 175.976 98.1277 175.523 97.854C175.07 97.5803 174.007 97.3382 173.87 96.8435C173.733 96.3488 174.344 96.4225 174.47 96.2435C174.597 96.0646 174.733 95.5909 174.755 95.1804C174.776 94.7699 174.818 91.791 172.965 91.77L172.933 91.7173Z" fill="#039EA0"/>
<path d="M193.944 112.201C193.828 111.885 193.638 111.338 193.565 111.138C193.449 110.843 192.607 108.011 192.249 107.264C191.891 106.517 191.954 105.212 191.954 104.938C191.954 104.664 191.817 102.654 191.596 102.317C191.375 101.98 190.617 101.643 190.186 101.464C189.754 101.285 189.354 101.064 189.312 100.706C189.27 100.349 189.133 100.149 189.017 100.033C188.902 99.9169 188.596 99.4117 188.617 98.9801C188.638 98.5486 188.775 98.0854 188.775 97.9696C188.775 97.8538 189.081 95.7592 187.238 95.3908C187.238 95.3908 186.291 95.2644 185.86 96.2434C185.428 97.2223 185.681 97.3275 185.596 97.6117C185.512 97.8959 185.639 98.4117 185.702 98.5486L185.765 98.6854C185.765 98.6854 185.902 99.1906 185.902 99.3696C185.902 99.5485 185.912 100.264 185.902 100.412C185.891 100.559 185.902 100.622 186.039 100.622C186.175 100.622 186.323 100.917 186.123 101.022L185.933 101.127C185.933 101.127 184.533 102.012 184.175 102.243C183.818 102.475 183.607 102.791 183.575 103.285C183.544 103.78 183.386 105.675 183.333 106.19C183.291 106.717 183.091 107.475 182.733 107.875C182.375 108.275 181.123 109.98 180.954 110.201C180.786 110.422 180.228 110.885 179.986 110.78C179.744 110.675 179.165 111.075 178.87 111.275C178.576 111.464 178.365 111.664 178.544 112.211C178.723 112.759 179.07 113.359 179.607 113.106C180.144 112.853 180.576 112.485 180.618 112.169C180.66 111.853 180.944 111.317 181.27 111.085C181.597 110.843 183.418 109.085 183.775 108.654C184.133 108.222 184.418 107.496 184.396 106.938C184.386 106.39 184.818 104.717 184.902 105.012C184.986 105.306 184.965 106.696 184.975 107.243C184.986 107.79 184.944 109.106 184.449 109.896C183.954 110.685 183.228 112.443 183.449 112.517C183.67 112.59 183.912 112.601 183.912 112.759V112.906C183.912 112.906 183.975 114.99 184.26 115.59C184.544 116.19 185.049 118.053 185.112 118.98C185.175 119.906 185.333 125.064 185.333 125.99C185.333 126.916 185.481 128.074 185.575 128.042C185.67 128.011 185.817 128.485 185.786 128.842C185.754 129.2 185.702 129.442 186.144 129.442C186.586 129.442 187.302 129.327 187.512 129C187.723 128.674 188.144 128.79 188.165 128.653C188.186 128.516 188.207 128.095 188.502 128.095C188.796 128.095 189.396 127.895 188.975 127.674L188.554 127.453C188.554 127.453 188.817 127.19 188.817 126.653C188.817 126.116 188.796 124.643 188.975 123.927L189.154 123.211C189.154 123.211 189.512 121.874 189.47 121.043C189.428 120.211 189.554 119.095 189.786 118.295C190.017 117.495 190.323 116.464 190.523 115.706C190.723 114.948 190.838 113.443 190.817 113.001C190.796 112.559 190.859 112.527 191.081 112.527C191.302 112.527 191.512 112.317 191.396 111.917C191.281 111.517 190.996 110.675 190.817 109.78C190.638 108.885 190.575 107.79 190.575 107.338C190.575 106.885 190.891 106.18 190.891 106.622C190.891 107.064 191.186 108.169 191.438 108.79C191.691 109.411 192.565 111.275 192.744 111.559C192.807 111.653 192.849 111.717 192.87 111.769C192.87 111.769 192.902 111.875 192.944 112.032C192.975 112.264 193.038 112.653 193.102 112.948C193.102 113.38 193.301 114.148 193.459 114.274C193.617 114.401 193.965 113.895 194.038 113.559C194.112 113.222 194.154 112.527 193.954 112.169L193.944 112.201Z" fill="#039EA0"/>
</svg>
