<?xml version="1.0" encoding="UTF-8" standalone="no"?>
<svg xmlns="http://www.w3.org/2000/svg" width="200" height="200" viewBox="0 0 200 200">
  <g transform="translate(0,-852.36218)">
    <path
       d="M 100,852.36218 C 44.771525,852.36218 0,897.1337 0,952.36218 c 0,55.22852 44.771525,100.00002 100,100.00002 55.22847,0 100,-44.7715 100,-100.00002 0,-55.22848 -44.77153,-100 -100,-100 z m 0,10 c 49.70563,0 90,40.29437 90,90 0,49.70562 -40.29437,90.00002 -90,90.00002 -49.705627,0 -90,-40.2944 -90,-90.00002 0,-49.70563 40.294373,-90 90,-90 z"
       style="fill:#1a2352;fill-opacity:1;stroke:none" />
    <path
       d="m 100,872.36218 c -44.18278,0 -80,35.81722 -80,80 0,44.18282 35.81722,80.00002 80,80.00002 44.18278,0 80,-35.8172 80,-80.00002 0,-44.18278 -35.81722,-80 -80,-80 z m 0,10 c 38.65993,0 70,31.34007 70,70 0,38.66002 -31.34007,70.00002 -70,70.00002 -38.659932,0 -70,-31.34 -70,-70.00002 0,-38.65993 31.340068,-70 70,-70 z"
       style="fill:#1a2352;fill-opacity:1;stroke:none" />
    <path
       d="m 100,892.36218 c -33.137085,0 -60,26.86292 -60,60 0,33.13712 26.862915,60.00002 60,60.00002 33.13708,0 60,-26.8629 60,-60.00002 0,-33.13708 -26.86292,-60 -60,-60 z m 0,10 c 27.61424,0 50,22.38576 50,50 0,27.61432 -22.38576,50.00002 -50,50.00002 -27.614237,0 -50,-22.3857 -50,-50.00002 0,-27.61424 22.385763,-50 50,-50 z"
       style="fill:#1a2352;fill-opacity:1;stroke:none" />
    <path
       d="m 100,912.36218 c -22.09139,0 -40,17.90861 -40,40 0,22.09142 17.90861,40.00002 40,40.00002 22.09139,0 40,-17.9086 40,-40.00002 0,-22.09139 -17.90861,-40 -40,-40 z m 0,10 c 16.56854,0 30,13.43146 30,30 0,16.56857 -13.43146,30.00002 -30,30.00002 -16.568542,0 -30,-13.43145 -30,-30.00002 0,-16.56854 13.431458,-30 30,-30 z"
       style="fill:#1a2352;fill-opacity:1;stroke:none" />
    <path
       d="m 100,932.36218 c -11.045695,0 -20,8.95431 -20,20 0,11.04571 8.954305,20.00002 20,20.00002 11.0457,0 20,-8.95431 20,-20.00002 0,-11.04569 -8.9543,-20 -20,-20 z"
       style="fill:#00C2CB;fill-opacity:1;stroke:none" />
  </g>
</svg>
